<?xml version="1.0" encoding="utf-8"?>
<!-- Generator: Adobe Illustrator 25.4.1, SVG Export Plug-In . SVG Version: 6.00 Build 0)  -->
<svg version="1.1" id="Camada_1" xmlns="http://www.w3.org/2000/svg" xmlns:xlink="http://www.w3.org/1999/xlink" x="0px" y="0px"
	 viewBox="0 0 150 150" style="enable-background:new 0 0 150 150;" xml:space="preserve">
<style type="text/css">
	.st0{fill:#9275FF;}
	.st1{fill:#FFFFFF;}
	.st2{fill:#373737;}
	.st3{fill:#E2D8EA;}
</style>
<g id="Layer_2_00000115487378233463907700000003466412345003742374_">
	<g id="Layer_1-2_00000137114084840830343800000002134511323238592429_">
		<path class="st0" d="M129.2,75.7c0,30.2-24.5,54.7-54.7,54.7l0,0c-0.6,0-1.2,0-1.8,0c-0.2,0-0.4,0-0.6,0
			c-30.2-1.3-53.6-26.8-52.3-57s26.8-53.6,57-52.3c28.3,1.2,51,23.9,52.3,52.2v0.8C129.2,74.6,129.2,75.1,129.2,75.7z"/>
		<path class="st1" d="M124.3,74.6h-1.4c-0.1,0-0.2,0-0.2-0.1l-0.4-1.4c0-0.1-0.2-0.2-0.3-0.1c-0.1,0-0.1,0.1-0.1,0.1l-0.4,1.4
			c0,0.1-0.1,0.1-0.2,0.1h-1.4c-0.1,0-0.2,0.1-0.2,0.2c0,0.1,0,0.1,0.1,0.2l1.1,0.9C121,75.9,121,76,121,76l-0.4,1.4
			c0,0.1,0,0.2,0.1,0.2c0.1,0,0.1,0,0.2,0l1.1-0.9c0.1,0,0.2,0,0.2,0l1.2,0.9c0.1,0.1,0.2,0,0.3-0.1c0,0,0-0.1,0-0.2l-0.4-1.4
			c0-0.1,0-0.2,0.1-0.2l1.2-0.9c0.1-0.1,0.1-0.2,0.1-0.3C124.5,74.6,124.4,74.6,124.3,74.6z"/>
		<path class="st1" d="M29.1,74.6h-1.4c-0.1,0-0.2,0-0.2-0.1L27,73.1c0-0.1-0.1-0.2-0.2-0.1c-0.1,0-0.1,0.1-0.1,0.1l-0.4,1.4
			c0,0.1-0.1,0.1-0.2,0.1h-1.4c-0.1,0-0.2,0.1-0.2,0.2c0,0.1,0,0.1,0.1,0.2l1.1,0.9c0.1,0.1,0.1,0.1,0.1,0.2l-0.4,1.4
			c0,0.1,0,0.2,0.1,0.2c0.1,0,0.1,0,0.2,0l1.1-0.9c0.1-0.1,0.2-0.1,0.2,0l1.2,0.9c0.1,0.1,0.2,0,0.3-0.1c0,0,0-0.1,0-0.2L28,76
			c0-0.1,0-0.2,0.1-0.2l1.2-0.9c0.1-0.1,0.1-0.2,0-0.3C29.2,74.6,29.1,74.6,29.1,74.6z"/>
		<path class="st1" d="M123.1,64.3l-1.4,0.3c-0.1,0-0.2,0-0.2-0.1l-0.7-1.2c-0.1-0.1-0.2-0.1-0.3-0.1c0,0-0.1,0.1-0.1,0.1l-0.1,1.4
			c0,0.1-0.1,0.2-0.2,0.2l-1.4,0.3c-0.1,0-0.2,0.2-0.1,0.3c0,0.1,0.1,0.1,0.1,0.1l1.3,0.6c0.1,0,0.1,0.1,0.1,0.2l-0.1,1.4
			c0,0.1,0.1,0.2,0.2,0.2c0.1,0,0.1,0,0.2-0.1l1-1.1c0.1-0.1,0.1-0.1,0.2-0.1l1.3,0.6c0.1,0,0.2,0,0.3-0.1c0-0.1,0-0.1,0-0.2
			l-0.7-1.2c0-0.1,0-0.2,0-0.2l1-1.1c0.1-0.1,0.1-0.2,0.1-0.3C123.3,64.2,123.2,64.2,123.1,64.3z"/>
		<path class="st1" d="M29.9,84.1l-1.4,0.3c-0.1,0-0.2,0-0.2-0.1L27.6,83c-0.1-0.1-0.2-0.1-0.3-0.1c-0.1,0-0.1,0.1-0.1,0.2l-0.1,1.4
			c0,0.1-0.1,0.1-0.2,0.2L25.5,85c-0.1,0-0.2,0.1-0.1,0.2c0,0.1,0.1,0.1,0.1,0.1l1.3,0.6c0.1,0,0.1,0.1,0.1,0.2l-0.2,1.4
			c0,0.1,0.1,0.2,0.2,0.2c0.1,0,0.1,0,0.2-0.1l1-1.1c0.1-0.1,0.1-0.1,0.2-0.1l1.3,0.6c0.1,0,0.2,0,0.3-0.1c0-0.1,0-0.1,0-0.2
			l-0.7-1.2c0-0.1,0-0.2,0-0.2l1-1.1c0.1-0.1,0.1-0.2,0-0.3C30.1,84.1,30,84,29.9,84.1z"/>
		<path class="st1" d="M32.7,93.1l-1.3,0.6c-0.1,0-0.2,0-0.2-0.1l-1-1.1c-0.1-0.1-0.2-0.1-0.3,0c0,0-0.1,0.1-0.1,0.2l0.1,1.4
			c0,0.1,0,0.2-0.1,0.2l-1.3,0.6c-0.1,0-0.1,0.2-0.1,0.3c0,0.1,0.1,0.1,0.1,0.1l1.4,0.3c0.1,0,0.1,0.1,0.2,0.2l0.1,1.4
			c0,0.1,0.1,0.2,0.2,0.2c0.1,0,0.1,0,0.2-0.1l0.7-1.2c0-0.1,0.1-0.1,0.2-0.1l1.4,0.3c0.1,0,0.2-0.1,0.2-0.2c0-0.1,0-0.1,0-0.2
			l-1-1.1c0-0.1,0-0.2,0-0.2l0.7-1.2c0-0.1,0-0.2-0.1-0.2C32.8,93.1,32.7,93.1,32.7,93.1z"/>
		<path class="st1" d="M37.2,101.4l-1.1,0.9c-0.1,0-0.2,0-0.2,0l-1.2-0.9c-0.1-0.1-0.2,0-0.3,0c0,0.1,0,0.1,0,0.2l0.4,1.4
			c0,0.1,0,0.2-0.1,0.2l-1.2,0.9c-0.1,0.1-0.1,0.2,0,0.3c0,0,0.1,0.1,0.2,0.1h1.4c0.1,0,0.2,0.1,0.2,0.1l0.4,1.4
			c0,0.1,0.2,0.2,0.3,0.1c0.1,0,0.1-0.1,0.1-0.1l0.4-1.4c0-0.1,0.1-0.1,0.2-0.1h1.4c0.1,0,0.2-0.1,0.2-0.2c0-0.1,0-0.1-0.1-0.1
			l-1.1-0.9c-0.1-0.1-0.1-0.1-0.1-0.2l0.4-1.4c0-0.1,0-0.2-0.1-0.2C37.4,101.3,37.3,101.4,37.2,101.4z"/>
		<path class="st1" d="M43.4,108.6l-1,1.1c-0.1,0.1-0.1,0.1-0.2,0.1l-1.3-0.6c-0.1,0-0.2,0-0.3,0.1c0,0.1,0,0.1,0,0.2l0.7,1.2
			c0,0.1,0,0.2,0,0.2l-1,1.1c-0.1,0.1-0.1,0.2,0,0.3c0,0,0.1,0.1,0.2,0l1.4-0.3c0.1,0,0.2,0,0.2,0.1l0.7,1.2
			c0.1,0.1,0.2,0.1,0.3,0.1c0,0,0.1-0.1,0.1-0.1l0.2-1.4c0-0.1,0.1-0.2,0.2-0.2l1.4-0.3c0.1,0,0.2-0.2,0.1-0.3c0,0-0.1-0.1-0.1-0.1
			l-1.3-0.5c-0.1,0-0.1-0.1-0.1-0.2l0.1-1.4c0-0.1,0-0.2-0.1-0.3C43.5,108.5,43.5,108.5,43.4,108.6z"/>
		<path class="st1" d="M51,114.3l-0.7,1.2c0,0.1-0.1,0.1-0.2,0.1l-1.4-0.3c-0.1,0-0.2,0-0.2,0.1c0,0.1,0,0.1,0.1,0.2l1,1.1
			c0,0.1,0,0.2,0,0.2l-0.7,1.2c-0.1,0.1,0,0.2,0.1,0.3c0.1,0,0.1,0,0.2,0l1.3-0.6c0.1,0,0.2,0,0.2,0l1,1.1c0.1,0.1,0.2,0.1,0.3,0
			c0,0,0.1-0.1,0.1-0.1l-0.1-1.4c0-0.1,0-0.2,0.1-0.2l1.3-0.6c0.1,0,0.2-0.2,0.1-0.3c0-0.1-0.1-0.1-0.1-0.1l-1.4-0.3
			c-0.1,0-0.1-0.1-0.2-0.2l-0.2-1.4c0-0.1-0.1-0.2-0.2-0.1C51,114.3,51,114.3,51,114.3z"/>
		<path class="st1" d="M59.6,118.4l-0.4,1.3c0,0.1-0.1,0.1-0.2,0.1h-1.4c-0.1,0-0.2,0.1-0.2,0.2c0,0.1,0,0.1,0.1,0.2l1.2,0.9
			c0.1,0,0.1,0.1,0.1,0.2l-0.4,1.4c0,0.1,0,0.2,0.1,0.2c0.1,0,0.1,0,0.2,0l1.2-0.9c0.1-0.1,0.2-0.1,0.2,0l1.1,0.9
			c0.1,0.1,0.2,0,0.3-0.1c0,0,0-0.1,0-0.2l-0.4-1.4c0-0.1,0-0.2,0.1-0.2l1.1-0.9c0.1-0.1,0.1-0.2,0-0.3c0,0-0.1-0.1-0.1-0.1h-1.4
			c-0.1,0-0.2-0.1-0.2-0.1l-0.4-1.4c0-0.1-0.2-0.1-0.3-0.1C59.6,118.3,59.6,118.4,59.6,118.4z"/>
		<path class="st1" d="M68.9,120.6l-0.1,1.4c0,0.1-0.1,0.2-0.2,0.2l-1.4,0.3c-0.1,0-0.2,0.2-0.1,0.3c0,0.1,0.1,0.1,0.1,0.1l1.3,0.6
			c0.1,0,0.1,0.1,0.1,0.2l-0.2,1.4c0,0.1,0.1,0.2,0.2,0.2c0.1,0,0.1,0,0.2-0.1l1-1.1c0.1-0.1,0.1-0.1,0.2-0.1l1.3,0.6
			c0.1,0,0.2,0,0.3-0.1c0-0.1,0-0.1,0-0.2l-0.8-1.2c0-0.1,0-0.2,0-0.2l1-1.1c0.1-0.1,0.1-0.2,0-0.3c0,0-0.1-0.1-0.2,0l-1.4,0.3
			c-0.1,0-0.2,0-0.2-0.1l-0.8-1.2c-0.1-0.1-0.2-0.1-0.3,0C68.9,120.5,68.9,120.6,68.9,120.6z"/>
		<path class="st1" d="M78.4,120.7l0.1,1.4c0,0.1,0,0.2-0.1,0.2l-1.3,0.6c-0.1,0-0.2,0.2-0.1,0.3c0,0.1,0.1,0.1,0.1,0.1l1.4,0.3
			c0.1,0,0.1,0.1,0.2,0.2l0.2,1.4c0,0.1,0.1,0.2,0.2,0.2c0.1,0,0.1,0,0.2-0.1l0.7-1.2c0-0.1,0.1-0.1,0.2-0.1l1.4,0.3
			c0.1,0,0.2,0,0.2-0.1c0-0.1,0-0.1-0.1-0.2l-1-1.1c-0.1-0.1-0.1-0.2,0-0.2l0.7-1.2c0.1-0.1,0-0.2-0.1-0.3c-0.1,0-0.1,0-0.2,0
			l-1.3,0.6c-0.1,0-0.2,0-0.2,0l-0.9-1c-0.1-0.1-0.2-0.1-0.3,0C78.4,120.6,78.4,120.7,78.4,120.7z"/>
		<path class="st1" d="M87.7,118.9l0.4,1.4c0,0.1,0,0.2-0.1,0.2l-1.1,0.9c-0.1,0.1-0.1,0.2,0,0.3c0,0,0.1,0.1,0.1,0.1h1.4
			c0.1,0,0.2,0.1,0.2,0.1l0.4,1.4c0,0.1,0.2,0.2,0.3,0.1c0.1,0,0.1-0.1,0.1-0.1l0.4-1.4c0-0.1,0.1-0.1,0.2-0.1h1.4
			c0.1,0,0.2-0.1,0.2-0.2c0-0.1,0-0.1-0.1-0.2l-1.2-0.9c-0.1-0.1-0.1-0.1-0.1-0.2l0.4-1.4c0-0.1,0-0.2-0.1-0.2c-0.1,0-0.1,0-0.2,0
			l-1.2,0.9c-0.1,0.1-0.2,0.1-0.2,0l-1.1-0.9c-0.1-0.1-0.2,0-0.3,0C87.6,118.8,87.6,118.8,87.7,118.9z"/>
		<path class="st1" d="M96.4,115.2l0.7,1.2c0,0.1,0,0.2,0,0.2l-1,1.1c-0.1,0.1-0.1,0.2,0,0.3c0,0,0.1,0.1,0.2,0l1.4-0.3
			c0.1,0,0.2,0,0.2,0.1l0.7,1.2c0.1,0.1,0.2,0.1,0.3,0.1c0,0,0.1-0.1,0.1-0.1l0.2-1.4c0-0.1,0.1-0.1,0.2-0.2l1.4-0.3
			c0.1,0,0.2-0.2,0.1-0.3c0,0-0.1-0.1-0.1-0.1l-1.3-0.6c-0.1,0-0.1-0.1-0.1-0.2l0.1-1.4c0-0.1,0-0.2-0.1-0.2c-0.1,0-0.1,0-0.2,0.1
			l-0.9,1.1c-0.1,0.1-0.1,0.1-0.2,0.1l-1.3-0.6c-0.1,0-0.2,0-0.3,0.1C96.3,115.1,96.3,115.2,96.4,115.2z"/>
		<path class="st1" d="M104.1,109.8l1,1.1c0,0.1,0,0.2,0,0.2l-0.7,1.2c-0.1,0.1,0,0.2,0.1,0.3c0.1,0,0.1,0,0.2,0l1.3-0.6
			c0.1,0,0.2,0,0.2,0l1,1.1c0.1,0.1,0.2,0.1,0.3,0c0,0,0.1-0.1,0.1-0.1l-0.1-1.4c0-0.1,0-0.2,0.1-0.2l1.3-0.6c0.1,0,0.2-0.2,0.1-0.3
			c0-0.1-0.1-0.1-0.1-0.1l-1.4-0.3c-0.1,0-0.1-0.1-0.2-0.2l-0.2-1.4c0-0.1-0.1-0.2-0.2-0.2c-0.1,0-0.1,0-0.1,0.1l-0.7,1.2
			c0,0.1-0.1,0.1-0.2,0.1l-1.4-0.2c-0.1-0.1-0.2,0-0.3,0.1C104,109.7,104,109.8,104.1,109.8z"/>
		<path class="st1" d="M110.6,102.9l1.1,0.9c0.1,0,0.1,0.1,0.1,0.2l-0.4,1.4c0,0.1,0,0.2,0.1,0.2c0.1,0,0.1,0,0.2,0l1.1-0.9
			c0.1,0,0.2,0,0.2,0l1.2,0.9c0.1,0.1,0.2,0,0.3,0c0-0.1,0-0.1,0-0.2l-0.4-1.4c0-0.1,0-0.2,0.1-0.2l1.2-0.9c0.1-0.1,0.1-0.2,0-0.3
			c0,0-0.1-0.1-0.2-0.1h-1.4c-0.1,0-0.2-0.1-0.2-0.1l-0.4-1.4c0-0.1-0.2-0.2-0.3-0.1c-0.1,0-0.1,0.1-0.1,0.1l-0.4,1.4
			c0,0.1-0.1,0.1-0.2,0.1h-1.4c-0.1,0-0.2,0.1-0.2,0.2C110.6,102.9,110.6,102.9,110.6,102.9z"/>
		<path class="st1" d="M115.6,94.8l1.3,0.6c0.1,0,0.1,0.1,0.1,0.2l-0.1,1.4c0,0.1,0.1,0.2,0.2,0.2c0.1,0,0.1,0,0.1-0.1l1-1.1
			c0.1,0,0.2,0,0.2,0l1.3,0.6c0.1,0,0.2,0,0.3-0.1c0-0.1,0-0.1,0-0.2l-0.7-1.2c-0.1-0.1-0.1-0.2,0-0.2l1-1.1c0.1-0.1,0.1-0.2,0-0.3
			c-0.1-0.1-0.1-0.1-0.2-0.1l-1.4,0.3c-0.1,0-0.2,0-0.2-0.1l-0.7-1.3c0-0.1-0.2-0.1-0.2-0.1c-0.1,0-0.1,0.1-0.1,0.2l-0.2,1.4
			c0,0.1-0.1,0.2-0.2,0.2l-1.4,0.3c-0.1,0-0.2,0.1-0.2,0.2C115.5,94.7,115.6,94.8,115.6,94.8z"/>
		<path class="st1" d="M25.6,66l1.4,0.3c0.1,0,0.1,0.1,0.2,0.2l0.2,1.4c0,0.1,0.1,0.2,0.2,0.2c0.1,0,0.1,0,0.1-0.1l0.7-1.2
			c0-0.1,0.1-0.1,0.2-0.1l1.4,0.3c0.1,0,0.2,0,0.2-0.1c0-0.1,0-0.1,0-0.2l-0.9-1.1c0-0.1,0-0.2,0-0.2l0.7-1.2c0.1-0.1,0-0.2-0.1-0.3
			c-0.1,0-0.1,0-0.2,0l-1.3,0.6c-0.1,0-0.1,0-0.2,0l-1-1.1c-0.1-0.1-0.2-0.1-0.3,0c0,0-0.1,0.1-0.1,0.2l0.1,1.4c0,0.1,0,0.2-0.1,0.2
			l-1.3,0.6c-0.1,0-0.1,0.2-0.1,0.3C25.5,66,25.5,66,25.6,66z"/>
		<path class="st1" d="M118.7,85.8l1.4,0.3c0.1,0,0.1,0.1,0.2,0.2l0.1,1.4c0,0.1,0.1,0.2,0.2,0.2c0.1,0,0.1,0,0.2-0.1l0.7-1.2
			c0-0.1,0.1-0.1,0.2-0.1l1.4,0.3c0.1,0,0.2,0,0.2-0.1c0-0.1,0-0.1,0-0.2l-1-1.1c0-0.1,0-0.2,0-0.2l0.7-1.2c0.1-0.1,0-0.2-0.1-0.3
			c-0.1,0-0.1,0-0.2,0l-1.3,0.6c-0.1,0-0.2,0-0.2,0l-1-1.1c-0.1-0.1-0.2-0.1-0.3,0c0,0-0.1,0.1-0.1,0.2l0.2,1.4c0,0.1,0,0.2-0.1,0.2
			l-1.3,0.6c-0.1,0.1-0.1,0.2-0.1,0.3C118.7,85.8,118.7,85.8,118.7,85.8z"/>
		<polygon class="st2" points="74.5,35.1 76.5,33.6 78.4,35.3 80.6,34 82.4,35.9 84.7,34.8 86.2,36.9 88.7,36 90,38.2 92.5,37.5 
			93.6,39.9 96.1,39.5 97,42 99.6,41.8 100.2,44.3 102.8,44.4 103.1,47 105.7,47.3 105.8,49.9 108.3,50.5 108.2,53.1 110.6,54 
			110.2,56.6 112.6,57.6 111.9,60.1 114.2,61.5 113.3,63.9 115.4,65.4 114.2,67.7 116.2,69.5 114.8,71.7 116.6,73.6 115,75.7 
			116.6,77.7 114.8,79.6 116.2,81.8 114.2,83.6 115.4,85.9 113.3,87.4 114.2,89.9 111.9,91.2 112.6,93.7 110.2,94.8 110.6,97.3 
			108.2,98.2 108.3,100.8 105.8,101.4 105.7,104 103.1,104.3 102.8,106.9 100.2,107 99.6,109.5 97,109.4 96.1,111.8 93.6,111.4 
			92.5,113.8 90,113.1 88.7,115.3 86.2,114.4 84.7,116.5 82.4,115.4 80.6,117.4 78.4,116 76.5,117.8 74.5,116.2 72.4,117.8 
			70.5,116 68.3,117.4 66.6,115.4 64.2,116.5 62.7,114.4 60.3,115.3 59,113.1 56.4,113.8 55.4,111.4 52.8,111.8 52,109.4 
			49.4,109.5 48.8,107 46.2,106.9 45.8,104.3 43.2,104 43.1,101.4 40.6,100.8 40.8,98.2 38.3,97.3 38.7,94.8 36.4,93.7 37,91.2 
			34.8,89.9 35.7,87.4 33.6,85.9 34.7,83.6 32.8,81.8 34.1,79.6 32.4,77.7 33.9,75.7 32.4,73.6 34.1,71.7 32.8,69.5 34.7,67.7 
			33.6,65.4 35.7,63.9 34.8,61.5 37,60.1 36.4,57.6 38.7,56.6 38.3,54 40.8,53.1 40.6,50.5 43.1,49.9 43.2,47.3 45.8,47 46.2,44.4 
			48.8,44.3 49.4,41.8 52,42 52.8,39.5 55.4,39.9 56.4,37.5 59,38.2 60.3,36 62.7,36.9 64.2,34.8 66.6,35.9 68.3,34 70.5,35.3 
			72.4,33.6 		"/>
		<path class="st1" d="M97.2,93.8l0.4,1.3c0,0.1,0.1,0.2,0.2,0.2h1.3c0.1,0,0.3,0.1,0.3,0.3c0,0.1,0,0.2-0.1,0.2l-1.1,0.8
			c-0.1,0.1-0.1,0.2-0.1,0.3l0.4,1.3c0,0.1,0,0.3-0.2,0.3c-0.1,0-0.2,0-0.2,0l-1.1-0.8c-0.1-0.1-0.2-0.1-0.3,0l-1.1,0.8
			c-0.1,0.1-0.3,0.1-0.4-0.1c-0.1-0.1-0.1-0.2,0-0.2l0.4-1.3c0-0.1,0-0.2-0.1-0.3l-1.1-0.8c-0.1-0.1-0.1-0.3,0-0.4
			c0,0,0.1-0.1,0.1-0.1h1.3c0.1,0,0.2-0.1,0.3-0.2l0.4-1.3c0.1-0.1,0.2-0.2,0.4-0.2C97.2,93.6,97.2,93.7,97.2,93.8z"/>
		<path class="st1" d="M76.8,39.9l0.7,2.2c0.1,0.2,0.2,0.3,0.4,0.3h2.3c0.3,0,0.5,0.2,0.5,0.5c0,0.2-0.1,0.3-0.2,0.4l-1.9,1.4
			c-0.2,0.1-0.2,0.3-0.2,0.5l0.7,2.2c0.1,0.2-0.1,0.5-0.3,0.6c-0.1,0-0.3,0-0.4-0.1l-1.9-1.4c-0.2-0.1-0.4-0.1-0.6,0l-1.9,1.4
			C74,48,73.7,48,73.6,47.8c-0.1-0.1-0.1-0.3-0.1-0.4l0.7-2.2c0.1-0.2,0-0.4-0.2-0.5l-1.9-1.4c-0.2-0.1-0.3-0.4-0.1-0.7
			c0.1-0.1,0.2-0.2,0.4-0.2h2.3c0.2,0,0.4-0.1,0.4-0.3l0.7-2.2c0.1-0.2,0.3-0.4,0.6-0.3C76.6,39.6,76.8,39.7,76.8,39.9z"/>
		<path class="st1" d="M62.4,44.7l0.3,1c0,0.1,0.1,0.2,0.2,0.2H64c0.1,0,0.2,0.1,0.2,0.2c0,0.1,0,0.1-0.1,0.2l-0.9,0.6
			c-0.1,0.1-0.1,0.2-0.1,0.2l0.3,1c0,0.1,0,0.2-0.1,0.3c-0.1,0-0.1,0-0.2,0l-0.9-0.6c-0.1-0.1-0.2-0.1-0.3,0l-0.9,0.6
			c-0.1,0.1-0.2,0-0.3,0c0-0.1-0.1-0.1,0-0.2l0.3-1c0-0.1,0-0.2-0.1-0.2l-0.9-0.6c-0.1-0.1-0.1-0.2,0-0.3c0-0.1,0.1-0.1,0.2-0.1h1.1
			c0.1,0,0.2-0.1,0.2-0.2l0.3-1c0.1-0.1,0.2-0.2,0.3-0.1C62.3,44.6,62.3,44.6,62.4,44.7z"/>
		<path class="st1" d="M51,94.1l0.3,1c0,0.1,0.1,0.2,0.2,0.2h1.1c0.1,0,0.2,0.1,0.2,0.2c0,0.1,0,0.1-0.1,0.2l-0.9,0.6
			c-0.1,0.1-0.1,0.2-0.1,0.2l0.3,1c0,0.1,0,0.2-0.1,0.3c-0.1,0-0.1,0-0.2,0l-0.9-0.6c-0.1-0.1-0.2-0.1-0.3,0l-0.9,0.6
			c-0.1,0.1-0.2,0-0.3,0c0-0.1-0.1-0.1,0-0.2l0.3-1c0-0.1,0-0.2-0.1-0.2l-0.9-0.6c-0.1-0.1-0.1-0.2,0-0.3c0-0.1,0.1-0.1,0.2-0.1h1.1
			c0.1,0,0.2-0.1,0.2-0.2l0.3-1C50.7,94,50.9,94,51,94.1C51,94.1,51,94.1,51,94.1z"/>
		<path class="st3" d="M88.5,102.6l0.3,0.9c0,0.1,0.1,0.1,0.2,0.1h0.9c0.1,0,0.2,0.1,0.2,0.2c0,0.1,0,0.1-0.1,0.2l-0.7,0.5
			c-0.1,0-0.1,0.1-0.1,0.2l0.3,0.9c0,0.1,0,0.2-0.1,0.2c0,0-0.1,0-0.1,0l-0.7-0.5c-0.1,0-0.1,0-0.2,0l-0.7,0.5
			c-0.1,0.1-0.2,0-0.3-0.1c0,0,0-0.1,0-0.1l0.3-0.9c0-0.1,0-0.2-0.1-0.2l-0.7-0.5c-0.1-0.1-0.1-0.2,0-0.2c0,0,0.1-0.1,0.2-0.1h0.9
			c0.1,0,0.1-0.1,0.2-0.1l0.3-0.9c0-0.1,0.1-0.1,0.2-0.1C88.5,102.5,88.5,102.6,88.5,102.6z"/>
		<path class="st3" d="M60.8,102.6l0.3,0.9c0,0.1,0.1,0.1,0.2,0.1h0.9c0.1,0,0.2,0.1,0.2,0.2c0,0.1,0,0.1-0.1,0.1l-0.7,0.5
			c-0.1,0-0.1,0.1-0.1,0.2l0.3,0.9c0,0.1,0,0.2-0.1,0.2c-0.1,0-0.1,0-0.2,0l-0.7-0.5c-0.1,0-0.2,0-0.2,0l-0.7,0.5
			c-0.1,0.1-0.2,0.1-0.3,0c0-0.1-0.1-0.1,0-0.2l0.3-0.9c0-0.1,0-0.2-0.1-0.2l-0.8-0.5c-0.1-0.1-0.1-0.2,0-0.2c0,0,0.1-0.1,0.1-0.1
			H60c0.1,0,0.2-0.1,0.2-0.1l0.3-0.9c0-0.1,0.1-0.2,0.2-0.2S60.8,102.5,60.8,102.6z"/>
		<path class="st1" d="M35.4,50.3c0.5,0.3,0.7,0.9,0.4,1.4c0,0.1-0.1,0.1-0.1,0.2L34,54.8l-3.1-1.9l1.6-2.8c0.4-0.7,0.9-0.7,1.4-0.4
			c0.2,0.1,0.4,0.4,0.5,0.6C34.7,50.1,35.1,50.1,35.4,50.3z M32.6,52.8l1-1.7l0,0c0.1-0.2,0.2-0.4-0.1-0.6c-0.3-0.2-0.4,0-0.6,0.2
			l-1,1.7L32.6,52.8z M34.9,51.1c-0.3-0.2-0.5,0-0.6,0.2l-1.1,1.9l0.7,0.4l1.1-1.9C35.1,51.5,35.2,51.3,34.9,51.1L34.9,51.1z"/>
		<path class="st1" d="M36.4,47.6c-0.9-0.8-1-1.7,0-3s2-1.3,2.9-0.6c0.9,0.8,1,1.7,0,3S37.3,48.4,36.4,47.6z M38.7,44.8
			c-0.6-0.5-1.1-0.4-1.7,0.4s-0.6,1.3,0,1.7s1.1,0.4,1.7-0.3C39.3,45.8,39.3,45.3,38.7,44.8z"/>
		<path class="st1" d="M41.3,42c-0.8-0.9-0.7-1.9,0.5-2.9c1.2-1.1,2.2-1,3-0.1c0.8,0.9,0.7,1.9-0.5,2.9S42.1,42.9,41.3,42z
			 M44.1,39.5c-0.5-0.6-1-0.6-1.7,0.1c-0.7,0.6-0.8,1.2-0.3,1.7s1,0.6,1.7-0.1C44.5,40.6,44.6,40.1,44.1,39.5z"/>
		<path class="st1" d="M50.1,34l-1.5,1l1.6,2.4l-0.8,0.5l-1.6-2.4l-1.5,1l-0.4-0.7l3.8-2.4L50.1,34z"/>
		<path class="st1" d="M54.4,30.9c1.3-0.6,2.2-0.4,2.7,0.5l-0.9,0.4c-0.3-0.5-0.9-0.5-1.6-0.2c-0.9,0.4-1.1,0.9-0.8,1.6
			s0.9,0.9,1.7,0.4c0.7-0.3,1-0.7,0.9-1.3l0.9-0.4c0.3,1-0.1,1.8-1.4,2.4c-1.5,0.7-2.4,0.3-2.9-0.8S52.9,31.6,54.4,30.9z"/>
		<path class="st1" d="M63.2,30.9l-2.1,0.6l-0.2,0.9l-1,0.3l0.9-4l1.2-0.3l2.8,3l-1,0.3L63.2,30.9z M62.7,30.3l-1.1-1.2l-0.3,1.6
			L62.7,30.3z"/>
		<path class="st1" d="M72.9,30.3l-0.9,0.1l-0.2-2.5l-1.3,2.6l-0.7,0.1L68,28.2l0.2,2.5l-0.9,0.1l-0.4-3.6l1.3-0.1l1.8,2.4l1.3-2.7
			l1.3-0.1L72.9,30.3z"/>
		<path class="st1" d="M80.1,28.2c0,0.7-0.6,1.3-1.4,1.2c0,0-0.1,0-0.1,0l-1.9-0.1l-0.1,1h-0.9l0.2-3.7l2.9,0.2
			c0.7,0,1.3,0.6,1.3,1.3C80.1,28.2,80.1,28.2,80.1,28.2z M79.1,28.2c0-0.6-0.4-0.6-0.7-0.6l-1.7-0.1l0,1.1l1.7,0.1
			C78.6,28.7,79.1,28.7,79.1,28.2z"/>
		<path class="st1" d="M87.8,30.3c0.4-1.1,1.3-1.6,2.8-1c1.5,0.5,2,1.4,1.6,2.6c-0.4,1.2-1.3,1.6-2.8,1
			C87.9,32.3,87.4,31.4,87.8,30.3z M91.3,31.4c0.2-0.7,0-1.1-0.9-1.5c-0.9-0.3-1.4-0.1-1.6,0.6s0,1.2,0.9,1.5
			C90.6,32.4,91.1,32.1,91.3,31.4z"/>
		<path class="st1" d="M99.9,33.5l-1.7,3.2l-1.1-0.6l-0.9-3.6L94.9,35L94,34.5l1.7-3.2l1.1,0.6l0.9,3.6l1.3-2.4L99.9,33.5z"/>
		<path class="st1" d="M104,39.9l-0.5,0.6l-3-2.2l2.2-2.9l0.8,0.6l-1.7,2.3L104,39.9z"/>
		<path class="st1" d="M106.3,43l-0.7-0.6l2.5-2.6l0.7,0.6L106.3,43z"/>
		<path class="st1" d="M114.2,46.2l-2.8,2.4l-0.9-1l0.5-3.7l-2.1,1.8l-0.6-0.7l2.8-2.4l0.9,1l-0.5,3.7l2.1-1.8L114.2,46.2z"/>
		<path class="st1" d="M116,50.1l-0.6,0.4l1.5,2.6l-0.6,0.3l-1.5-2.5l-0.6,0.4l1.5,2.5l-0.6,0.4l-2-3.3l3.1-1.9l2,3.3l-0.6,0.4
			L116,50.1z"/>
		<path class="st1" d="M80.9,99.9c-0.2-0.6-0.7-1.1-1.4-1.1c-0.1,0-0.2,0-0.3,0c-0.4,0.1-0.7,0.3-0.9,0.6c-0.2,0.3-0.2,0.7-0.2,1.1
			c0,0.2,0.1,0.4,0.3,0.5l-2.4,4.5c-0.1,0-0.2,0-0.3,0c-0.2,0-0.4,0-0.5,0.1l-1.7-2.2c0.1-0.2,0.2-0.5,0.2-0.7
			c-0.1-0.8-0.7-1.3-1.5-1.3c-0.7,0.1-1.2,0.6-1.3,1.3c0,0.3,0.1,0.6,0.3,0.9l-1.3,2.9c-0.8,0-1.4,0.7-1.4,1.4
			c0,0.8,0.7,1.4,1.4,1.4c0.8,0,1.4-0.6,1.4-1.4c0-0.4-0.2-0.8-0.5-1.1l1.2-2.8h0.2c0.1,0,0.3,0,0.4-0.1l1.8,2.2
			c-0.1,0.2-0.1,0.4-0.1,0.6c-0.1,0.8,0.5,1.4,1.3,1.5c0.8,0.1,1.4-0.5,1.5-1.3c0-0.1,0-0.1,0-0.2c0-0.3-0.1-0.6-0.3-0.8l2.4-4.6
			h0.2c0.1,0,0.2,0,0.3,0C80.7,101.4,81.2,100.7,80.9,99.9C81,99.9,81,99.9,80.9,99.9L80.9,99.9z M70,108.4c-0.2,0-0.4-0.2-0.4-0.4
			c0-0.2,0.2-0.4,0.4-0.4c0.2,0,0.4,0.2,0.4,0.4c0,0,0,0,0,0C70.4,108.3,70.3,108.4,70,108.4z M72,102.8c0-0.2,0.2-0.4,0.4-0.4
			c0.2,0,0.4,0.2,0.4,0.4c0,0.2-0.2,0.4-0.4,0.4c0,0,0,0,0,0C72.1,103.2,72,103.1,72,102.8C72,102.8,72,102.8,72,102.8L72,102.8z
			 M75.8,107.4c-0.2,0-0.4-0.2-0.4-0.4c0-0.2,0.2-0.4,0.4-0.4l0,0c0.2,0,0.4,0.2,0.4,0.4C76.2,107.2,76,107.4,75.8,107.4z
			 M79.9,100.5c-0.1,0.1-0.1,0.2-0.2,0.2c-0.2,0-0.4-0.1-0.5-0.3c0-0.1,0-0.2,0.1-0.3c0.1-0.1,0.1-0.2,0.2-0.2h0.1
			c0.2,0,0.3,0.1,0.4,0.3C80,100.3,80,100.4,79.9,100.5L79.9,100.5z"/>
		<path class="st1" d="M54,66.7v0.2c0,0.9-0.2,1.8-1.4,1.8c-1.3,0-1.4-0.9-1.4-1.9v-3.5c0-1.1,0.5-1.7,1.4-1.7
			c1.2,0,1.4,0.9,1.4,1.7v0.3h-0.7v-0.3c0-0.5-0.1-1-0.6-1s-0.6,0.4-0.6,1V67c0,0.7,0.2,1.1,0.7,1.1s0.6-0.5,0.6-1.1v-0.3L54,66.7z"
			/>
		<path class="st1" d="M56.5,61.8v6.9h-0.7v-6.9H56.5z"/>
		<path class="st1" d="M60.9,65.4h-1.6V68h1.8L61,68.7h-2.4v-6.9h2.4v0.7h-1.6v2.2h1.6V65.4z"/>
		<path class="st1" d="M62.7,68.7v-6.9h0.9c0.4,1.3,1.3,4.9,1.4,5.5l0,0c0-0.9-0.1-1.9-0.1-3v-2.4h0.7v6.9h-0.9
			c-0.4-1.3-1.4-5.1-1.5-5.7l0,0c0.1,0.9,0.1,1.9,0.1,3.2v2.5L62.7,68.7z"/>
		<path class="st1" d="M68.3,62.5h-1.1v-0.6h3v0.7h-1.1v6.2h-0.8V62.5z"/>
		<path class="st1" d="M72.5,61.8v6.9h-0.8v-6.9H72.5z"/>
		<path class="st1" d="M75,66.8v0.4c0,0.7,0.2,1,0.7,1s0.7-0.4,0.7-1.1c0.1-0.7-0.3-1.4-0.9-1.7c-0.7-0.4-1.1-1.1-1.1-2
			c0-0.9,0.3-1.7,1.3-1.7c1.1,0,1.3,0.7,1.3,1.6v0.3h-0.7v-0.3c0-0.6-0.1-0.9-0.6-0.9s-0.6,0.4-0.6,1s0.1,0.9,0.8,1.4
			c0.8,0.4,1.3,1.3,1.3,2.3c0,1-0.3,1.9-1.4,1.9c-1.2,0-1.4-0.7-1.4-1.6v-0.4H75z"/>
		<path class="st1" d="M79.5,62.5h-1.1v-0.6h3v0.7h-1.1v6.2h-0.7V62.5z"/>
		<path class="st1" d="M83.2,66.5l-0.3,2.2h-0.7l1.1-6.9h1l1.2,6.9h-0.8l-0.4-2.2L83.2,66.5z M84.3,65.8c-0.2-1.5-0.4-2.7-0.5-3.4
			l0,0c0,0.5-0.3,2.1-0.5,3.4H84.3z"/>
		<path class="st1" d="M89.6,61.8h1.3c1.5,0,1.7,0.9,1.7,2v2.7c0,1.1-0.2,2.2-1.7,2.2h-1.3V61.8z M90.4,68.1h0.4c0.9,0,1-0.5,1-1.4
			v-3c0-0.8-0.1-1.3-1-1.3h-0.4V68.1z"/>
		<path class="st1" d="M96.8,65.4h-1.6V68H97l-0.1,0.7h-2.4v-6.9h2.4v0.7h-1.6v2.2h1.6V65.4z"/>
		<path class="st0" d="M51.5,78.2c0,3.9-2.6,5.7-5.6,5.7h-8.3V72.5h8.3C48.8,72.5,51.5,74.3,51.5,78.2z M48.5,78.2
			c0-2.8-1.5-3.3-3.7-3.3h-4.3v6.5h4.3C47,81.4,48.5,81,48.5,78.2z"/>
		<path class="st0" d="M61.9,81.5H55l-1.2,2.4h-3.3l5.9-11.5h4l6,11.5h-3.3L61.9,81.5z M60.8,79.3l-2.3-4.6l-2.3,4.6H60.8z"/>
		<path class="st0" d="M81,78.2c0,3.9-2.6,5.7-5.6,5.7h-8.3V72.5h8.3C78.4,72.5,81,74.3,81,78.2z M78,78.2c0-2.8-1.5-3.3-3.7-3.3H70
			v6.5h4.3C76.5,81.4,78,81,78,78.2z"/>
		<path class="st0" d="M81.8,78.2c0-3.8,2.2-5.9,7.2-5.9c5,0,7.2,2.1,7.2,5.9c0,3.8-2.2,5.9-7.2,5.9C84,84.1,81.8,82,81.8,78.2z
			 M93.3,78.2c0-2.3-1.2-3.4-4.3-3.4c-3.1,0-4.3,1.1-4.3,3.4c0,2.3,1.2,3.4,4.3,3.4C92.1,81.6,93.3,80.5,93.3,78.2z"/>
		<path class="st0" d="M99.9,80c0,1.2,1,1.8,4.7,1.8c3.1,0,4-0.3,4-1.2c0-0.9-0.7-1.1-4.4-1.3c-5-0.2-7-1-7-3.6s2.6-3.3,6.8-3.3
			s6.9,1.1,6.9,3.9h-2.9c0-1.3-1.3-1.6-4.3-1.6c-2.9,0-3.6,0.3-3.6,1.1c0,0.9,0.7,1,4,1.2c4.5,0.2,7.3,0.5,7.3,3.4
			c0,3.1-2.9,3.7-7.1,3.7c-4.7,0-7.5-0.8-7.5-4.1L99.9,80z"/>
	</g>
</g>
</svg>
